<svg xmlns="http://www.w3.org/2000/svg" viewBox="0 0 800 420">
<rect width="800" height="420" fill="#07101d"/>
<rect x="0" y="0" width="800" height="2" fill="#3dd6f5" opacity="0.3"/>
<text x="40" y="55" font-family="JetBrains Mono, monospace" font-size="10" font-weight="700" letter-spacing="0.14em" fill="#3dd6f5" opacity="0.85">SECURE ENTERPRISE CAMPUS · CISCO IOS · ASA FIREWALL · ZERO TRUST</text>
<!-- Core layer -->
<rect x="300" y="80" width="200" height="44" rx="6" fill="rgba(61,214,245,0.12)" stroke="#3dd6f5" stroke-width="1"/>
<text x="400" y="107" font-family="JetBrains Mono, monospace" font-size="12" font-weight="700" fill="#3dd6f5" text-anchor="middle">Core switch layer</text>
<!-- Lines down to distribution -->
<line x1="340" y1="124" x2="180" y2="172" stroke="#3dd6f5" stroke-width="0.8" opacity="0.4"/>
<line x1="400" y1="124" x2="400" y2="172" stroke="#3dd6f5" stroke-width="0.8" opacity="0.4"/>
<line x1="460" y1="124" x2="620" y2="172" stroke="#3dd6f5" stroke-width="0.8" opacity="0.4"/>
<!-- Distribution layer -->
<rect x="80" y="172" width="200" height="40" rx="6" fill="rgba(126,240,196,0.1)" stroke="#7ef0c4" stroke-width="0.8"/>
<text x="180" y="197" font-family="JetBrains Mono, monospace" font-size="11" font-weight="700" fill="#7ef0c4" text-anchor="middle">Distribution A</text>
<rect x="300" y="172" width="200" height="40" rx="6" fill="rgba(126,240,196,0.1)" stroke="#7ef0c4" stroke-width="0.8"/>
<text x="400" y="197" font-family="JetBrains Mono, monospace" font-size="11" font-weight="700" fill="#7ef0c4" text-anchor="middle">Distribution B</text>
<rect x="520" y="172" width="200" height="40" rx="6" fill="rgba(126,240,196,0.1)" stroke="#7ef0c4" stroke-width="0.8"/>
<text x="620" y="197" font-family="JetBrains Mono, monospace" font-size="11" font-weight="700" fill="#7ef0c4" text-anchor="middle">Distribution C</text>
<!-- Lines to access -->
<line x1="130" y1="212" x2="90" y2="252" stroke="#7ef0c4" stroke-width="0.6" opacity="0.3"/>
<line x1="180" y1="212" x2="180" y2="252" stroke="#7ef0c4" stroke-width="0.6" opacity="0.3"/>
<line x1="230" y1="212" x2="270" y2="252" stroke="#7ef0c4" stroke-width="0.6" opacity="0.3"/>
<line x1="350" y1="212" x2="330" y2="252" stroke="#7ef0c4" stroke-width="0.6" opacity="0.3"/>
<line x1="450" y1="212" x2="470" y2="252" stroke="#7ef0c4" stroke-width="0.6" opacity="0.3"/>
<line x1="560" y1="212" x2="530" y2="252" stroke="#7ef0c4" stroke-width="0.6" opacity="0.3"/>
<line x1="620" y1="212" x2="620" y2="252" stroke="#7ef0c4" stroke-width="0.6" opacity="0.3"/>
<line x1="680" y1="212" x2="710" y2="252" stroke="#7ef0c4" stroke-width="0.6" opacity="0.3"/>
<!-- VLAN access nodes -->
<rect x="50" y="252" width="80" height="30" rx="4" fill="rgba(255,255,255,0.04)" stroke="rgba(255,255,255,0.1)" stroke-width="0.5"/>
<text x="90" y="271" font-family="JetBrains Mono, monospace" font-size="9" fill="#8fa8c8" text-anchor="middle">VLAN 10</text>
<rect x="140" y="252" width="80" height="30" rx="4" fill="rgba(255,255,255,0.04)" stroke="rgba(255,255,255,0.1)" stroke-width="0.5"/>
<text x="180" y="271" font-family="JetBrains Mono, monospace" font-size="9" fill="#8fa8c8" text-anchor="middle">VLAN 20</text>
<rect x="230" y="252" width="80" height="30" rx="4" fill="rgba(255,255,255,0.04)" stroke="rgba(255,255,255,0.1)" stroke-width="0.5"/>
<text x="270" y="271" font-family="JetBrains Mono, monospace" font-size="9" fill="#8fa8c8" text-anchor="middle">VLAN 30</text>
<rect x="290" y="252" width="80" height="30" rx="4" fill="rgba(255,255,255,0.04)" stroke="rgba(255,255,255,0.1)" stroke-width="0.5"/>
<text x="330" y="271" font-family="JetBrains Mono, monospace" font-size="9" fill="#8fa8c8" text-anchor="middle">VLAN 40</text>
<rect x="430" y="252" width="80" height="30" rx="4" fill="rgba(255,255,255,0.04)" stroke="rgba(255,255,255,0.1)" stroke-width="0.5"/>
<text x="470" y="271" font-family="JetBrains Mono, monospace" font-size="9" fill="#8fa8c8" text-anchor="middle">VLAN 50</text>
<rect x="490" y="252" width="80" height="30" rx="4" fill="rgba(255,255,255,0.04)" stroke="rgba(255,255,255,0.1)" stroke-width="0.5"/>
<text x="530" y="271" font-family="JetBrains Mono, monospace" font-size="9" fill="#8fa8c8" text-anchor="middle">VLAN 60</text>
<rect x="580" y="252" width="80" height="30" rx="4" fill="rgba(255,255,255,0.04)" stroke="rgba(255,255,255,0.1)" stroke-width="0.5"/>
<text x="620" y="271" font-family="JetBrains Mono, monospace" font-size="9" fill="#8fa8c8" text-anchor="middle">VLAN 70</text>
<rect x="670" y="252" width="80" height="30" rx="4" fill="rgba(255,255,255,0.04)" stroke="rgba(255,255,255,0.1)" stroke-width="0.5"/>
<text x="710" y="271" font-family="JetBrains Mono, monospace" font-size="9" fill="#8fa8c8" text-anchor="middle">VLAN 80</text>
<!-- Tags row -->
<rect x="40" y="320" width="90" height="26" rx="13" fill="rgba(61,214,245,0.1)" stroke="rgba(61,214,245,0.3)" stroke-width="0.6"/>
<text x="85" y="337" font-family="JetBrains Mono, monospace" font-size="9" fill="#3dd6f5" text-anchor="middle">ACL rules</text>
<rect x="145" y="320" width="100" height="26" rx="13" fill="rgba(61,214,245,0.1)" stroke="rgba(61,214,245,0.3)" stroke-width="0.6"/>
<text x="195" y="337" font-family="JetBrains Mono, monospace" font-size="9" fill="#3dd6f5" text-anchor="middle">ASA firewall</text>
<rect x="260" y="320" width="80" height="26" rx="13" fill="rgba(61,214,245,0.1)" stroke="rgba(61,214,245,0.3)" stroke-width="0.6"/>
<text x="300" y="337" font-family="JetBrains Mono, monospace" font-size="9" fill="#3dd6f5" text-anchor="middle">DMZ</text>
<rect x="355" y="320" width="110" height="26" rx="13" fill="rgba(61,214,245,0.1)" stroke="rgba(61,214,245,0.3)" stroke-width="0.6"/>
<text x="410" y="337" font-family="JetBrains Mono, monospace" font-size="9" fill="#3dd6f5" text-anchor="middle">Zero trust</text>
<rect x="480" y="320" width="130" height="26" rx="13" fill="rgba(61,214,245,0.1)" stroke="rgba(61,214,245,0.3)" stroke-width="0.6"/>
<text x="545" y="337" font-family="JetBrains Mono, monospace" font-size="9" fill="#3dd6f5" text-anchor="middle">Segmentation</text>
<rect x="625" y="320" width="140" height="26" rx="13" fill="rgba(61,214,245,0.1)" stroke="rgba(61,214,245,0.3)" stroke-width="0.6"/>
<text x="695" y="337" font-family="JetBrains Mono, monospace" font-size="9" fill="#3dd6f5" text-anchor="middle">Least privilege</text>
<text x="40" y="390" font-family="JetBrains Mono, monospace" font-size="10" fill="#e8f1ff" opacity="0.7">Secure Enterprise Campus Infrastructure</text>
<text x="40" y="408" font-family="JetBrains Mono, monospace" font-size="9" fill="#8fa8c8" opacity="0.5">SNHU · IT coursework · Cisco IOS simulation</text>
</svg>
