<svg xmlns="http://www.w3.org/2000/svg" viewBox="0 0 100 68" role="img" aria-label="Cloud & Virtualization">
  <defs><linearGradient id="g" x1="0" y1="0" x2="1" y2="1">
    <stop offset="0%" stop-color="rgb(99 102 241)"/><stop offset="100%" stop-color="rgb(14 165 233)"/>
  </linearGradient></defs>
  <rect width="100" height="68" rx="10" fill="#0b1220"/>
  <rect x="6" y="6" width="88" height="56" rx="8" fill="url(#g)" opacity="0.18"/>
  <g fill="none" stroke="url(#g)" stroke-width="3" stroke-linecap="round" stroke-linejoin="round">
    <path d="20 38 C 16 38 12 34 16 30 C 16 24 22 20 30 22 C 32 16 40 12 50 14 C 58 10 70 16 68 26 C 74 26 80 30 78 36 C 78 40 74 42 70 42 L 22 42 Z"/>
    <rect x="30" y="44" width="40" height="14" rx="3"/>
    <line x1="40" y1="44" x2="40" y2="58"/><line x1="50" y1="44" x2="50" y2="58"/><line x1="60" y1="44" x2="60" y2="58"/>
  </g>
  <text x="50" y="63" fill="#dbe7ff" font-size="7" text-anchor="middle" font-family="Arial, sans-serif">Cloud & Virt.</text>
</svg>
