<svg xmlns="http://www.w3.org/2000/svg" viewBox="0 0 800 420">
<rect width="800" height="420" fill="#07101d"/>
<circle cx="60" cy="210" r="120" fill="none" stroke="#3dd6f5" stroke-width="0.6" opacity="0.12"/>
<circle cx="60" cy="210" r="80" fill="none" stroke="#3dd6f5" stroke-width="0.6" opacity="0.18"/>
<circle cx="60" cy="210" r="40" fill="none" stroke="#3dd6f5" stroke-width="0.6" opacity="0.28"/>
<circle cx="740" cy="210" r="100" fill="none" stroke="#7ef0c4" stroke-width="0.6" opacity="0.1"/>
<circle cx="740" cy="210" r="60" fill="none" stroke="#7ef0c4" stroke-width="0.6" opacity="0.15"/>
<line x1="60" y1="210" x2="220" y2="140" stroke="#3dd6f5" stroke-width="0.8" opacity="0.25"/>
<line x1="60" y1="210" x2="220" y2="210" stroke="#3dd6f5" stroke-width="0.8" opacity="0.25"/>
<line x1="60" y1="210" x2="220" y2="280" stroke="#3dd6f5" stroke-width="0.8" opacity="0.25"/>
<circle cx="220" cy="140" r="5" fill="#3dd6f5" opacity="0.6"/>
<circle cx="220" cy="210" r="5" fill="#3dd6f5" opacity="0.6"/>
<circle cx="220" cy="280" r="5" fill="#3dd6f5" opacity="0.6"/>
<rect x="0" y="0" width="800" height="2" fill="#3dd6f5" opacity="0.3"/>
<rect x="0" y="418" width="800" height="2" fill="#3dd6f5" opacity="0.15"/>
<text x="240" y="90" font-family="JetBrains Mono, monospace" font-size="11" font-weight="700" letter-spacing="0.14em" fill="#7ef0c4" opacity="0.9">NCL SPRING 2026 · TEAM GAME · INK INJECTION</text>
<text x="240" y="175" font-family="JetBrains Mono, monospace" font-size="80" font-weight="800" fill="#e8f1ff" letter-spacing="-0.03em">159</text>
<text x="240" y="205" font-family="JetBrains Mono, monospace" font-size="14" fill="#8fa8c8">of 3,638 teams ranked</text>
<rect x="240" y="220" width="200" height="1.5" fill="#3dd6f5" opacity="0.35"/>
<text x="240" y="262" font-family="JetBrains Mono, monospace" font-size="36" font-weight="700" fill="#7ef0c4">92.75%</text>
<text x="240" y="285" font-family="JetBrains Mono, monospace" font-size="12" fill="#8fa8c8">completion · 2605 / 3000 pts</text>
<text x="240" y="340" font-family="JetBrains Mono, monospace" font-size="9" fill="#8fa8c8" opacity="0.65" letter-spacing="0.06em">OSINT · CRYPTO · PASSWORD CRACKING · NETWORK TRAFFIC</text>
<text x="240" y="358" font-family="JetBrains Mono, monospace" font-size="9" fill="#8fa8c8" opacity="0.65" letter-spacing="0.06em">LOG ANALYSIS · FORENSICS · WEB EXPLOITATION · SCANNING</text>
<text x="680" y="210" font-family="JetBrains Mono, monospace" font-size="12" font-weight="700" fill="#7ef0c4" text-anchor="middle" opacity="0.5">INK</text>
<text x="680" y="228" font-family="JetBrains Mono, monospace" font-size="12" font-weight="700" fill="#7ef0c4" text-anchor="middle" opacity="0.5">INJECTION</text>
</svg>
