<svg xmlns="http://www.w3.org/2000/svg" viewBox="0 0 900 520" role="img" aria-labelledby="title desc">
<title id="title">Interactive lab development thumbnail</title><desc id="desc">Dashboard showing playable cybersecurity and infrastructure training labs.</desc>
<defs><linearGradient id="bg" x1="0" y1="0" x2="1" y2="1"><stop offset="0" stop-color="#0b1020"/><stop offset="1" stop-color="#172554"/></linearGradient><linearGradient id="b" x1="0" y1="0" x2="1" y2="1"><stop offset="0" stop-color="#a78bfa"/><stop offset="1" stop-color="#3dd6f5"/></linearGradient></defs>
<rect width="900" height="520" rx="32" fill="url(#bg)"/><rect x="46" y="46" width="808" height="428" rx="28" fill="#0a1428" stroke="#334155" stroke-width="2"/>
<text x="78" y="96" fill="#a78bfa" font-family="monospace" font-size="22" font-weight="700" letter-spacing="3">INTERACTIVE TRAINING LABS</text>
<text x="78" y="136" fill="#e5e7eb" font-family="monospace" font-size="38" font-weight="800">Learn by doing</text>
<g transform="translate(78 180)"><rect width="218" height="178" rx="20" fill="#111f38" stroke="#a78bfa"/><text x="24" y="44" fill="#e9d5ff" font-family="monospace" font-size="19" font-weight="700">Security</text><text x="24" y="82" fill="#9fb3ce" font-family="monospace" font-size="14">firewalls · risk</text><text x="24" y="110" fill="#9fb3ce" font-family="monospace" font-size="14">awareness · IR</text><rect x="24" y="132" width="132" height="20" rx="10" fill="url(#b)" opacity=".75"/></g>
<g transform="translate(342 180)"><rect width="218" height="178" rx="20" fill="#111f38" stroke="#3dd6f5"/><text x="24" y="44" fill="#bae6fd" font-family="monospace" font-size="19" font-weight="700">Network</text><text x="24" y="82" fill="#9fb3ce" font-family="monospace" font-size="14">VLAN · SD-WAN</text><text x="24" y="110" fill="#9fb3ce" font-family="monospace" font-size="14">packet capture</text><rect x="24" y="132" width="152" height="20" rx="10" fill="url(#b)" opacity=".75"/></g>
<g transform="translate(606 180)"><rect width="218" height="178" rx="20" fill="#111f38" stroke="#7ef0c4"/><text x="24" y="44" fill="#bbf7d0" font-family="monospace" font-size="19" font-weight="700">Systems</text><text x="24" y="82" fill="#9fb3ce" font-family="monospace" font-size="14">SQL · support</text><text x="24" y="110" fill="#9fb3ce" font-family="monospace" font-size="14">troubleshooting</text><rect x="24" y="132" width="168" height="20" rx="10" fill="url(#b)" opacity=".75"/></g>
<text x="78" y="424" fill="#cbd5e1" font-family="monospace" font-size="18">HTML · CSS · JavaScript · scenario design · user-centered learning</text>
</svg>