<svg xmlns="http://www.w3.org/2000/svg" viewBox="0 0 1200 675" role="img" aria-label="Look What I Built thumbnail">
  <defs>
    <linearGradient id="bg-look-built" x1="0" x2="1" y1="0" y2="1">
      <stop offset="0" stop-color="#050b18"/>
      <stop offset=".50" stop-color="#111827"/>
      <stop offset="1" stop-color="#3b1f2b"/>
    </linearGradient>
    <linearGradient id="rise-look-built" x1="0" x2="1" y1="1" y2="0">
      <stop offset="0" stop-color="#f97316"/>
      <stop offset=".52" stop-color="#facc15"/>
      <stop offset="1" stop-color="#38bdf8"/>
    </linearGradient>
    <filter id="glow-look-built" x="-35%" y="-35%" width="170%" height="170%">
      <feGaussianBlur stdDeviation="7" result="blur"/>
      <feMerge><feMergeNode in="blur"/><feMergeNode in="SourceGraphic"/></feMerge>
    </filter>
  </defs>
  <rect width="1200" height="675" rx="44" fill="url(#bg-look-built)"/>
  <circle cx="1006" cy="130" r="132" fill="#38bdf8" opacity=".11"/>
  <circle cx="190" cy="555" r="170" fill="#f97316" opacity=".11"/>
  <path d="M0 540 C152 474 260 580 420 520 C628 442 770 466 1200 270 L1200 675 L0 675 Z" fill="#facc15" opacity=".10"/>
  <rect x="90" y="92" width="1020" height="492" rx="34" fill="none" stroke="#facc15" stroke-width="4" opacity=".52"/>
  <g filter="url(#glow-look-built)" transform="translate(760 176)">
    <path d="M72 330 L72 250 L132 250 L132 192 L196 192 L196 126 L260 126 L260 64 L330 64 L330 330 Z" fill="url(#rise-look-built)" opacity=".95"/>
    <path d="M72 330 L330 72" fill="none" stroke="#e5eef9" stroke-width="12" stroke-linecap="round" opacity=".42"/>
    <path d="M286 72 L330 64 L320 108" fill="none" stroke="#e5eef9" stroke-width="12" stroke-linecap="round" stroke-linejoin="round" opacity=".58"/>
    <circle cx="330" cy="64" r="20" fill="#38bdf8"/>
  </g>
  <path d="M725 492 C788 452 865 452 940 492" fill="none" stroke="#facc15" stroke-width="9" stroke-linecap="round" opacity=".45"/>
  <text x="120" y="260" fill="#facc15" font-family="Consolas, monospace" font-size="62" font-weight="800">LOOK WHAT</text>
  <text x="120" y="334" fill="#f97316" font-family="Consolas, monospace" font-size="62" font-weight="800">I BUILT</text>
  <text x="123" y="414" fill="#d7e6f7" font-family="Arial, sans-serif" font-size="34" font-weight="600">From nothing to something</text>
  <text x="123" y="492" fill="#8aa4bf" font-family="Consolas, monospace" font-size="24">&gt; comeback anthem · audio · video · story</text>
</svg>
