<svg xmlns="http://www.w3.org/2000/svg" viewBox="0 0 1200 675" role="img" aria-label="No Doubt About It Christine's Song thumbnail">
  <defs>
    <linearGradient id="bg-no-doubt" x1="0" x2="1" y1="0" y2="1">
      <stop offset="0" stop-color="#07111f"/>
      <stop offset=".52" stop-color="#1d2438"/>
      <stop offset="1" stop-color="#332033"/>
    </linearGradient>
    <linearGradient id="ring-no-doubt" x1="0" x2="1" y1="0" y2="1">
      <stop offset="0" stop-color="#fbbf24"/>
      <stop offset=".55" stop-color="#fb7185"/>
      <stop offset="1" stop-color="#93c5fd"/>
    </linearGradient>
    <filter id="glow-no-doubt" x="-30%" y="-30%" width="160%" height="160%">
      <feGaussianBlur stdDeviation="7" result="blur"/>
      <feMerge><feMergeNode in="blur"/><feMergeNode in="SourceGraphic"/></feMerge>
    </filter>
  </defs>
  <rect width="1200" height="675" rx="44" fill="url(#bg-no-doubt)"/>
  <circle cx="1000" cy="146" r="118" fill="#fb7185" opacity=".14"/>
  <circle cx="170" cy="552" r="155" fill="#fbbf24" opacity=".10"/>
  <path d="M0 510 C150 450 280 570 470 496 C678 414 850 445 1200 258 L1200 675 L0 675 Z" fill="#93c5fd" opacity=".10"/>
  <rect x="90" y="92" width="1020" height="492" rx="34" fill="none" stroke="#fbbf24" stroke-width="4" opacity=".50"/>
  <g filter="url(#glow-no-doubt)">
    <path d="M852 318 C852 286 878 260 910 260 C932 260 951 272 962 290 C973 272 992 260 1014 260 C1046 260 1072 286 1072 318 C1072 380 962 438 962 438 C962 438 852 380 852 318 Z" fill="url(#ring-no-doubt)" opacity=".95"/>
    <circle cx="914" cy="304" r="18" fill="#07111f" opacity=".45"/>
    <circle cx="1010" cy="304" r="18" fill="#07111f" opacity=".45"/>
  </g>
  <path d="M690 472 C760 426 827 426 897 472" fill="none" stroke="#93c5fd" stroke-width="10" stroke-linecap="round" opacity=".45"/>
  <path d="M275 180 C350 154 455 154 540 180" fill="none" stroke="#8aa4bf" stroke-width="10" stroke-linecap="round" opacity=".44"/>
  <text x="120" y="267" fill="#fbbf24" font-family="Consolas, monospace" font-size="62" font-weight="800">NO DOUBT</text>
  <text x="120" y="340" fill="#fb7185" font-family="Consolas, monospace" font-size="62" font-weight="800">ABOUT IT</text>
  <text x="123" y="418" fill="#d7e6f7" font-family="Arial, sans-serif" font-size="34" font-weight="600">Christine’s family tribute song</text>
  <text x="123" y="492" fill="#8aa4bf" font-family="Consolas, monospace" font-size="24">&gt; audio · video · lyrics · family story</text>
</svg>