<svg xmlns="http://www.w3.org/2000/svg" viewBox="0 0 1200 675" role="img" aria-labelledby="title desc">
  <title id="title">Security Awareness Executive Briefing Lab thumbnail</title>
  <desc id="desc">Executive security awareness dashboard with risk, culture, policy, and training decision cards.</desc>
  <defs>
    <linearGradient id="bg" x1="0" x2="1" y1="0" y2="1">
      <stop offset="0" stop-color="#07111f"/>
      <stop offset="1" stop-color="#143051"/>
    </linearGradient>
    <linearGradient id="green" x1="0" x2="1">
      <stop offset="0" stop-color="#34d399"/>
      <stop offset="1" stop-color="#60a5fa"/>
    </linearGradient>
    <filter id="shadow" x="-20%" y="-20%" width="140%" height="140%">
      <feDropShadow dx="0" dy="18" stdDeviation="20" flood-color="#000" flood-opacity=".35"/>
    </filter>
  </defs>
  <rect width="1200" height="675" fill="url(#bg)"/>
  <circle cx="140" cy="100" r="260" fill="#34d399" opacity=".11"/>
  <circle cx="1050" cy="580" r="260" fill="#60a5fa" opacity=".12"/>
  <g filter="url(#shadow)">
    <rect x="95" y="82" width="1010" height="510" rx="38" fill="#0f1b2e" stroke="#31445f"/>
    <rect x="145" y="142" width="360" height="360" rx="28" fill="#101f35" stroke="#334860"/>
    <path d="M325 190l135 58v92c0 84-55 137-135 174-80-37-135-90-135-174v-92z" fill="#132c47" stroke="url(#green)" stroke-width="10"/>
    <path d="M272 344l38 38 84-105" fill="none" stroke="#34d399" stroke-width="24" stroke-linecap="round" stroke-linejoin="round"/>
    <text x="145" y="552" font-family="Arial, sans-serif" font-size="28" font-weight="700" fill="#e5f3ff">Security Awareness Lab</text>
    <g transform="translate(565 142)">
      <text x="0" y="0" font-family="Arial, sans-serif" font-size="30" font-weight="800" fill="#e5f3ff">Executive Decision Simulator</text>
      <rect x="0" y="42" width="450" height="78" rx="18" fill="#13243a" stroke="#31445f"/>
      <text x="28" y="78" font-family="Arial, sans-serif" font-size="20" font-weight="700" fill="#34d399">Phishing Response</text>
      <text x="28" y="106" font-family="Arial, sans-serif" font-size="16" fill="#a8b5c7">Report, contain, and coach</text>
      <rect x="0" y="138" width="450" height="78" rx="18" fill="#13243a" stroke="#31445f"/>
      <text x="28" y="174" font-family="Arial, sans-serif" font-size="20" font-weight="700" fill="#60a5fa">Policy &amp; MFA</text>
      <text x="28" y="202" font-family="Arial, sans-serif" font-size="16" fill="#a8b5c7">Reduce account takeover risk</text>
      <rect x="0" y="234" width="450" height="78" rx="18" fill="#13243a" stroke="#31445f"/>
      <text x="28" y="270" font-family="Arial, sans-serif" font-size="20" font-weight="700" fill="#fbbf24">Human Risk</text>
      <text x="28" y="298" font-family="Arial, sans-serif" font-size="16" fill="#a8b5c7">Social engineering and insider risk</text>
      <rect x="0" y="330" width="450" height="78" rx="18" fill="#13243a" stroke="#31445f"/>
      <text x="28" y="366" font-family="Arial, sans-serif" font-size="20" font-weight="700" fill="#34d399">Executive Report</text>
      <text x="28" y="394" font-family="Arial, sans-serif" font-size="16" fill="#a8b5c7">Risk score and next actions</text>
    </g>
  </g>
</svg>
