<svg xmlns="http://www.w3.org/2000/svg" viewBox="0 0 1200 675" role="img" aria-label="Since Single Digits thumbnail">
  <defs>
    <linearGradient id="bg-digits" x1="0" x2="1" y1="0" y2="1">
      <stop offset="0" stop-color="#07111f"/>
      <stop offset=".50" stop-color="#14293d"/>
      <stop offset="1" stop-color="#243018"/>
    </linearGradient>
    <linearGradient id="digits-glow" x1="0" x2="1" y1="0" y2="1">
      <stop offset="0" stop-color="#34d399"/>
      <stop offset=".55" stop-color="#60a5fa"/>
      <stop offset="1" stop-color="#fbbf24"/>
    </linearGradient>
    <filter id="glow-digits" x="-30%" y="-30%" width="160%" height="160%">
      <feGaussianBlur stdDeviation="7" result="blur"/>
      <feMerge><feMergeNode in="blur"/><feMergeNode in="SourceGraphic"/></feMerge>
    </filter>
  </defs>
  <rect width="1200" height="675" rx="44" fill="url(#bg-digits)"/>
  <path d="M0 512 C144 430 310 576 500 502 C690 428 840 458 1200 300 L1200 675 L0 675 Z" fill="#34d399" opacity=".10"/>
  <circle cx="982" cy="150" r="112" fill="#60a5fa" opacity=".13"/>
  <circle cx="192" cy="538" r="144" fill="#fbbf24" opacity=".09"/>
  <rect x="90" y="92" width="1020" height="492" rx="34" fill="none" stroke="#34d399" stroke-width="4" opacity=".50"/>
  <g filter="url(#glow-digits)">
    <path d="M785 347 C820 300 878 290 924 326 C970 290 1028 300 1063 347" fill="none" stroke="url(#digits-glow)" stroke-width="24" stroke-linecap="round" opacity=".88"/>
    <circle cx="862" cy="360" r="42" fill="#60a5fa" opacity=".90"/>
    <circle cx="988" cy="360" r="42" fill="#34d399" opacity=".90"/>
    <path d="M904 360 L946 360" stroke="#fbbf24" stroke-width="16" stroke-linecap="round"/>
  </g>
  <path d="M764 458 C835 418 916 418 990 458" fill="none" stroke="#fbbf24" stroke-width="8" stroke-linecap="round" opacity=".46"/>
  <text x="120" y="276" fill="#34d399" font-family="Consolas, monospace" font-size="62" font-weight="800">SINCE</text>
  <text x="120" y="350" fill="#60a5fa" font-family="Consolas, monospace" font-size="62" font-weight="800">SINGLE DIGITS</text>
  <text x="123" y="426" fill="#d7e6f7" font-family="Arial, sans-serif" font-size="34" font-weight="600">Lifelong friendship tribute</text>
  <text x="123" y="500" fill="#8aa4bf" font-family="Consolas, monospace" font-size="24">&gt; Elmwood memories · audio · video · lyrics</text>
</svg>